<svg width="100" height="100" viewBox="0 0 24 24" fill="none" xmlns="http://www.w3.org/2000/svg">
  <rect width="24" height="24" rx="4" fill="#3A4374"/>
  <path d="M12 2C6.48 2 2 5.5 2 10c0 2.52 1.41 4.75 3.63 6.24l-.6 4.19c-.08.61.55 1.07 1.11.79l4.39-2.31C11.76 18.93 11.88 19 12 19c5.52 0 10-3.5 10-9S17.52 2 12 2zm0 15h-.55c-.22 0-.43.1-.56.27l-2.34 1.23.33-2.28c.04-.29-.07-.58-.28-.76C6.75 14.53 6 12.8 6 10c0-3.87 3.13-7 7-7s7 3.13 7 7-3.13 7-7 7zm-1-4h2v2h-2zm0-8h2v6h-2z" fill="#FFFFFF"/>
</svg>